<svg xmlns="http://www.w3.org/2000/svg" width="96" height="96" viewBox="0 0 96 96">
 <rect x="2" y="2" width="92" height="92" rx="3" fill="none" stroke="#6f5127" stroke-width="2"/>
 <rect x="6" y="6" width="84" height="84" rx="2" fill="none" stroke="#c9a25e" stroke-opacity=".28"/>
 <path d="M2 18V2h16M78 2h16v16M94 78v16H78M18 94H2V78" fill="none" stroke="#d2b06f" stroke-width="2"/>
 <path d="M10 10l9 0 0 3 -6 0 0 6 -3 0zM86 10l-9 0 0 3 6 0 0 6 3 0zM86 86l-9 0 0-3 6 0 0-6 3 0zM10 86l9 0 0-3 -6 0 0-6 -3 0z" fill="#9a7438"/>
</svg>
